<svg xmlns="http://www.w3.org/2000/svg" xmlns:xlink="http://www.w3.org/1999/xlink" width="497" zoomAndPan="magnify" viewBox="0 0 372.75 372.749986" height="497" preserveAspectRatio="xMidYMid meet" version="1.0"><path fill="#070707" d="M 288.785156 117.9375 C 287.574219 115.726562 284.695312 114.488281 281.652344 113.410156 C 274.28125 110.589844 266.59375 108.253906 259.574219 104.621094 C 255.921875 102.46875 254.621094 98.558594 252.816406 94.589844 C 252.085938 92.96875 251.347656 91.339844 250.84375 89.648438 C 249.480469 85.460938 250.492188 81.027344 250.460938 76.714844 C 250.378906 71.144531 250.335938 65.5 249.433594 60 C 248.097656 52.847656 245.398438 52.507812 240.75 57.804688 C 236.851562 61.839844 232.976562 65.964844 229.730469 70.566406 C 227.664062 73.300781 225.109375 77.027344 221.332031 76.8125 C 218.515625 76.574219 216.210938 74.117188 214.453125 71.984375 C 212.515625 69.574219 210.578125 67.148438 208.515625 64.925781 C 205.800781 62.074219 202.984375 59.46875 200.027344 56.957031 C 198.792969 55.953125 197.253906 54.746094 195.773438 54.488281 C 191.363281 53.9375 191.804688 65.074219 191.421875 68.085938 C 191.203125 74.234375 192.078125 80.34375 193 86.359375 C 194.878906 94.125 196.414062 98.382812 191.953125 105.867188 C 189.710938 110.53125 186.332031 114.902344 185.53125 120.054688 C 185.042969 123.75 187.867188 126.519531 190.863281 128.253906 C 195.894531 131.242188 200.933594 134.230469 205.957031 137.148438 C 211.589844 140.335938 217.09375 143.621094 222.9375 147.054688 C 225.867188 148.660156 229.011719 150.925781 231.953125 151.652344 C 235.027344 152.457031 235.699219 149.074219 238.253906 147.46875 C 241.585938 145.6875 245.390625 147.394531 249.003906 148.132812 C 261.992188 151.984375 268.449219 152.269531 276.820312 140.328125 C 278.898438 137.449219 280.855469 134.453125 283.152344 131.796875 C 286.148438 128.082031 291.285156 123.121094 288.855469 118.0625 Z M 233.59375 183.367188 C 234.992188 148.128906 230.777344 157.640625 203.796875 139.902344 C 197.347656 137.125 186.21875 127.261719 179.875 128.21875 C 168.527344 135.132812 158.125 144.640625 147.382812 152.515625 C 130.644531 164.472656 115.023438 178.660156 97.601562 189.394531 C 90.144531 191.296875 82.542969 187.371094 74.988281 187.582031 C 69.863281 186.417969 61.257812 185.835938 66.5625 193.265625 C 73.722656 202.488281 85.023438 206.34375 79.097656 220.042969 C 74.394531 237.136719 68.566406 254.179688 64.898438 271.503906 C 64.382812 275.765625 68.316406 276.554688 71.683594 276.328125 C 76.40625 276.148438 81.285156 276.414062 86.042969 276.210938 C 98.203125 276.171875 92.742188 258.734375 100.816406 251.503906 C 108.636719 240.808594 107.136719 271.226562 111.386719 274.140625 C 113.589844 276.441406 116.742188 276.164062 120.296875 276.199219 C 125.65625 275.621094 131.894531 277.398438 136.765625 275.042969 C 140.554688 270.40625 135.355469 262.308594 137.933594 257.125 C 138.828125 254.5 140.789062 252.410156 142.917969 250.632812 C 153.5625 242.175781 163.984375 233.304688 174.839844 225.1875 C 179.011719 221.988281 180.070312 226.46875 179.847656 229.902344 C 179.925781 242.617188 179.660156 255.363281 179.835938 268.074219 C 179.90625 270.394531 179.925781 273.382812 181.589844 275.011719 C 184.769531 277.578125 201.988281 277.792969 204.21875 274.652344 C 206.421875 267.632812 204.9375 259.652344 205.613281 252.273438 C 205.972656 242.921875 208.191406 246.625 208.894531 253.132812 C 212.464844 264.039062 204.980469 278.109375 221.648438 276.15625 C 226.851562 276.257812 234.078125 276.34375 233.679688 269.433594 C 233.34375 240.828125 233.835938 212.164062 233.589844 183.550781 L 233.589844 183.367188 Z M 233.59375 183.367188 " fill-opacity="1" fill-rule="nonzero"/><path fill="#000000" d="M 368.726562 356.140625 L 296.363281 283.78125 C 324.050781 252.320312 339.78125 212.675781 339.78125 170.519531 C 339.78125 76.765625 263.644531 0.628906 169.890625 0.628906 C 76.136719 0.628906 0 76.765625 0 170.519531 C 0 264.273438 76.136719 340.410156 169.890625 340.410156 C 212.046875 340.410156 251.6875 325.308594 283.152344 296.992188 L 355.511719 369.355469 C 357.398438 371.242188 359.914062 371.871094 362.433594 371.871094 C 364.949219 371.871094 367.464844 370.613281 369.355469 369.355469 C 372.5 365.578125 372.5 359.914062 368.726562 356.140625 Z M 169.890625 321.53125 C 86.832031 321.53125 18.875 253.578125 18.875 170.519531 C 18.875 87.460938 86.832031 19.507812 169.890625 19.507812 C 252.949219 19.507812 320.902344 87.460938 320.902344 170.519531 C 320.902344 253.578125 252.949219 321.53125 169.890625 321.53125 Z M 169.890625 321.53125 " fill-opacity="1" fill-rule="nonzero"/></svg>